<svg id="Layer_1" data-name="Layer 1" xmlns="http://www.w3.org/2000/svg" viewBox="0 0 2109 500"><defs><style>.cls-1{fill:#464342;}.cls-2{fill:#6b6867;}.cls-3{fill:#6a6867;}.cls-4{fill:#737170;}.cls-5{fill:#646261;}.cls-6{fill:#007499;}.cls-7{fill:#fefefe;}.cls-8{fill:#696666;}</style></defs><title>Artboard 3</title><path class="cls-1" d="M294,24c5.23,2.23,10.91,1.84,16.35,2.8Q421,46.44,475.16,144.85c21.82,39.74,30.9,82.88,25.39,127.8C489,367,438.51,433.06,349.12,465.2c-116.76,42-243.8-19.29-287.08-135.46a234.12,234.12,0,0,1-13-55.76c-.11-1,.48-2.42-1.07-3v-7a17.17,17.17,0,0,0,0-9v-9a13,13,0,0,0,0-8v-7c1.2-10.19,2.07-20.39,4.38-30.46a223.43,223.43,0,0,1,36-80.69C121.82,73,166.7,42.73,222.57,28.71,233.57,26,244.79,25.09,256,24h6a17.17,17.17,0,0,0,9,0h8a7.62,7.62,0,0,0,6,0Z"/><path class="cls-1" d="M2048,316c-1.86,1.88-1.62,4.55-2.5,6.8-7.1,18.2-21.17,27.59-39.66,31.2-17.54,3.43-33.36-1.15-47.63-11.34-3.33-2.38-4.83-1.71-6.28,1.48-1.16,2.57-2.67,5.05-3.36,7.74s-1.84,3.16-4.4,3.31c-3.92.23-5-1-5-4.95.23-16.83,0-33.67.17-50.5,0-2.06-1.63-5.4,2.84-5.44,3.38,0,6.08-.47,6.89,4.57,3.45,21.38,17.59,36.26,38,40.6,7.4,1.57,14.89,1.85,22.17-.86,14.71-5.49,18.65-21.48,8.14-33.15-4.87-5.42-11-9.09-17.48-12.27-9.24-4.57-18.59-8.91-27.91-13.32a69.94,69.94,0,0,1-16.85-10.59c-11.9-10.56-18.27-23.56-15-39.56,3.27-15.68,14.28-25,29-29.48,17.1-5.25,33.64-3.27,48.72,6.79,2.77,1.85,4,1.44,5.15-1.25.66-1.52,1.72-3,2-4.56.81-5.58,4.92-4.14,8.34-4.11,1.71,0,1.48,1.49,1.48,2.61,0,15.5,0,31,.05,46.49,0,2.22-.84,3.24-2.89,2.73-2.37-.58-6.07,2.13-6.91-2.41a55.16,55.16,0,0,0-6.27-17.78c-8.54-14.74-26.31-21.43-41.75-15.71-6.6,2.45-11.75,6.59-12.9,13.93s2.28,12.85,7.94,17.23a88.16,88.16,0,0,0,15.46,9.07c8.21,4,16.36,8.21,24.7,11.94,16.85,7.53,30.5,18,35.7,36.79Z"/><path class="cls-2" d="M271,24c-3,1.49-6,1.73-9,0Z"/><path class="cls-3" d="M48,255c1.49,3,1.74,6,0,9Z"/><path class="cls-4" d="M48,238c1.63,2.67,1.39,5.33,0,8Z"/><path class="cls-5" d="M285,24a4.5,4.5,0,0,1-6,0Z"/><path class="cls-6" d="M1060,287.29c12.93,13.39,24.12,27.79,38.16,39.42,11.78,9.75,24.89,16.11,40.78,13.83,12.17-1.75,16.77-6.62,18-18.86a142.73,142.73,0,0,0,.85-14.46c-.12-24.48,1-49-.61-73.45-1.19-17.5-6.18-22-23.75-22.54-3.56-.11-4.44-1.12-4.41-4.54,0-3.16,1-3.89,4-3.87,27.83.15,55.66-.09,83.48.29a103.56,103.56,0,0,1,40.72,8.82c31.77,14,44.17,43,40.16,73.62-4.41,33.77-26.7,55.09-62.21,61.45a165.81,165.81,0,0,1-29.34,2.32q-60.48,0-121,.07c-3.46,0-5.74-.87-8-3.7-14-17.82-28.18-35.47-42.31-53.18-.83-1-1.66-2.09-2.53-3.09-2-2.29-4.74-1.45-7-1.08s-1.23,2.76-1.23,4.24c0,8-.06,16,.23,24,.65,18.1,6.27,23.74,24.28,24.33,3,.1,3.86.77,4,3.88.15,3.89-1.2,4.64-4.81,4.62-26-.16-52-.12-78,0-3,0-4.91-.05-4.83-4.07.07-3.54,1-4.63,4.5-4.4a33.5,33.5,0,0,0,7.43-.73c9.27-1.53,13.74-5.87,15.3-15.18A74.56,74.56,0,0,0,993,313.06c.1-24.82,0-49.65.06-74.48a61.31,61.31,0,0,0-1.26-12.4c-1.77-8.71-6.35-13-15.1-14.23-2.3-.33-4.67-.92-6.94-.7-4.31.43-5.42-1.32-5.06-5.35.22-2.41.93-3.07,3.24-3.06,27.49.13,55-.16,82.47.38A61.28,61.28,0,0,1,1084.76,214c21.48,14.95,22.51,44.82,2.14,61.22a45.73,45.73,0,0,1-12.43,7.31C1070,284.22,1065.36,285.55,1060,287.29Z"/><path class="cls-1" d="M1573.11,287.55C1586.63,301.45,1598.5,317,1614,329a62,62,0,0,0,20.8,10.53,28.37,28.37,0,0,0,14.77.27c6.41-1.49,10.61-5.35,12.37-11.71a56.18,56.18,0,0,0,2-14.81q.09-37.49,0-75a52.72,52.72,0,0,0-1.58-12.86c-2.16-8.65-6.25-12.32-15.09-13.54-2.47-.34-5-1-7.44-.7-4.18.43-4.54-1.66-4.45-5,.07-2.6.83-3.55,3.46-3.41,3.32.19,6.66,0,10,0,37,0,74,.07,111-.1,4,0,5.29.94,5.47,5.1.46,10.81,1.57,21.59,2.33,32.39.1,1.38,1.44,3.73-1.47,3.76-2.2,0-5.22,1.43-6-2.47-.5-2.44-1.4-4.79-1.94-7.22-2.22-10-8.6-15.39-18.53-17-14.24-2.25-28.6-1.09-42.9-1.41-2.15,0-2.39,1.13-2.39,2.84q0,21.75,0,43.49c0,2.16.77,2.94,2.91,2.89,7-.17,14,.07,20.92-1.29,8.26-1.62,12-5.76,12.82-14.25a32.44,32.44,0,0,0,.18-6c-.32-3.46,1-4.5,4.48-4.56,3.83-.06,4.27,1.55,4.25,4.75q-.18,28.49,0,57c0,3.22-.79,4.29-4.15,4.25s-4.56-.72-4.64-4.35c-.36-16.3-3.08-19.19-19.22-21.19-5.62-.69-12.55-2.56-16.52.31-3.27,2.37-.94,9.67-1,14.77,0,8.82-.19,17.68,1.59,26.39,1.83,8.91,6.18,13,15.1,14.05a146.42,146.42,0,0,0,37.35-.82c9.85-1.39,16-6.75,18.45-16.39.61-2.42,1.62-4.76,2-7.2.56-3.75,3.3-2.57,5.39-2.6,3-.06,1.77,2.32,1.69,3.66-.61,11.47-1.48,22.94-2,34.42-.17,3.77-2.52,3.18-4.79,3.18h-87c-28.16,0-56.32-.06-84.48.07a8.86,8.86,0,0,1-8-3.75c-14.29-18.21-28.8-36.25-43.25-54.34-.92-1.16-1.64-2.55-3.15-3.08-4.4-1.55-6.81.16-6.76,4.89.09,8.16.1,16.33.44,24.49.74,17.09,6.62,22.83,23.71,23.33,2.7.08,4.57-.05,4.51,3.8s-1,4.71-4.73,4.68c-26-.17-52-.11-78-.07-2.79,0-5,.36-5-3.89,0-3.95,1.35-4.82,4.86-4.56a27.63,27.63,0,0,0,6.44-.62c10.34-1.69,14.76-6.13,16.2-16.6a98.08,98.08,0,0,0,1-12.93c.09-23.82,0-47.65,0-71.48a57.17,57.17,0,0,0-1.57-13.86c-2.12-8.59-6.35-12.29-15.17-13.49-2.31-.31-4.68-.92-6.94-.67-4.27.48-4.87-1.54-4.77-5.15.08-2.76,1.1-3.26,3.56-3.25,27,.11,54-.16,81,.3,13,.23,25.37,3.55,36.17,11.3a37.77,37.77,0,0,1,2,60.33c-6.93,5.74-15,9.2-23.67,11.23C1575.48,286.26,1574.28,286.27,1573.11,287.55Z"/><path class="cls-6" d="M663.46,219.14c-6.07,18.26-11.77,35.45-17.48,52.63q-13.44,40.46-26.88,80.91c-.72,2.15-.81,4.39-4.25,4.37s-3.5-2.36-4.18-4.47Q586.39,277.9,562.11,203.2a141.72,141.72,0,0,0-7.28-18c-6.11-12.6-16.61-17.54-30.05-17.39-2.92,0-4.94,0-4.89-4.12.05-3.89,1-5,5-4.94,29.32.17,58.65.09,88,.1,2.61,0,5.3-.72,5.11,3.77-.15,3.63-.67,5.49-4.87,5.25a34.29,34.29,0,0,0-13.77,1.9c-6.26,2.26-9.11,6.09-9.21,12.73a45,45,0,0,0,2.7,14.66q14.76,45.27,29.58,90.54c.2.62.54,1.2,1.16,2.58,1.3-3.74,2.41-6.86,3.46-10q19.62-58.38,39.2-116.77c.94-2.81,1.69-5,5.6-4.84,3.46.11,4.89,1.17,5.93,4.37q17,52.15,34.25,104.22,3.66,11.13,7.35,22.26c1.8-.73,1.67-2.47,2.12-3.8q14.58-43,29.06-86c1.9-5.67,3.7-11.4,3.64-17.5-.07-6.78-2.67-10.35-9.19-12.59a41.49,41.49,0,0,0-14.79-1.85c-4.29.12-3.12-2.77-3.3-5.05s0-4,3.26-4q38,.21,76,0c3.22,0,3.5,1.51,3.35,4s.76,5.25-3.42,5a57.81,57.81,0,0,0-8,.34c-12,1-20.49,7.12-25.7,17.91-7,14.43-11.27,29.84-16.35,45q-20.46,61-40.72,122c-.59,1.79-.54,3.82-3.47,4.06-3.5.28-4-1.78-4.85-4.28q-15.45-47.67-31-95.31C671.93,245,667.86,232.61,663.46,219.14Z"/><path class="cls-1" d="M1361.14,158.83c15.26.6,34-1.29,52.54,1.18,14.82,2,28.34,7.11,39.36,17.72,21.78,21,21.82,66.7-19.58,83.33-12.93,5.19-26.45,6.39-40.16,6.51q-9,.09-18,0c-2.09,0-3.4.19-3.35,2.87.36,16.3-.89,32.67,2,48.86,2.48,13.9,9.07,19.8,23.2,20.83a26.35,26.35,0,0,0,5,.34c4.19-.49,4.74,1.58,4.84,5.22.13,4.59-2.75,3.63-5.25,3.63q-45.49,0-91,0c-2.36,0-5.11.85-4.82-3.44.21-3.2-.18-6.18,4.49-5.34a5.58,5.58,0,0,0,1-.08c19.91-.75,26.43-7.07,28.53-28.82,1.58-16.45,1-33,.89-49.45-.11-21.49.82-43-.8-64.46a71.93,71.93,0,0,0-1.7-11.32c-2.89-12.07-8.8-17.12-21.1-18.31a42.63,42.63,0,0,0-7.48-.32c-3.25.25-3.7-1.19-3.84-4.07-.17-3.84.85-5,4.88-5C1326.44,159,1342.1,158.83,1361.14,158.83Z"/><path class="cls-6" d="M866,355.13c-26.23-.77-51.25-11.26-69.55-35.09-21.64-28.17-19.89-66.17,3.74-92.71,34.25-38.49,97.17-40.6,133.91-4.51,35.28,34.66,29.32,88.94-12.89,116.87C905.55,350.07,888.16,355,866,355.13Z"/><path class="cls-1" d="M1804,324.71c0-8.67,0-17.33,0-26,0-1.94-1-4.79,2.79-4.36,2.59.29,5.71-1.48,6.57,3.53,2.81,16.41,10.67,29.7,26.08,37.38,10.45,5.21,21.54,7.16,32.93,3.75,16.53-4.95,20.77-22.31,8.62-34.58-6-6-13.36-9.83-20.89-13.44-9.14-4.38-18.43-8.49-27.44-13.13-13.36-6.87-23.89-16.53-27.56-31.76-4.44-18.4,4.6-35.89,23.05-43.73s36.81-6.54,53.88,4.39c3.68,2.36,4.77,1.18,6.09-1.82a14.32,14.32,0,0,0,1.55-3.66c.52-3.91,2.9-4.42,6.28-4.34,2.63.07,3.4.82,3.38,3.43-.1,15.16-.06,30.33,0,45.49,0,1.79,0,3.68-2.49,3.07s-5.91,2.21-7-2.16a74.47,74.47,0,0,0-4.7-14.7c-7.68-16.09-23.52-24-40.38-20-10.89,2.55-17,10.14-16,19.66.51,4.6,2.92,8.06,6.22,11,5.38,4.87,11.88,7.92,18.28,11.1,10.87,5.4,21.88,10.53,32.66,16.11,11.62,6,20.61,14.72,24.83,27.44,5.71,17.2-2.53,37.63-19.27,48.44-20.54,13.26-47.22,12.27-68.47-3-3.72-2.67-5.15-1.88-6.84,1.62-1.23,2.54-2.67,5-3.25,7.79-.38,1.87-1.14,2.72-3.26,2.9-4.2.34-6.17-.49-5.87-5.46C1804.31,341.4,1804,333,1804,324.71Z"/><path class="cls-7" d="M275.35,34.36c120.82,1.49,217.14,99.32,216,218.1-1.06,117.38-96.3,216-217.73,215.3A216.31,216.31,0,0,1,58.45,250.52C58.84,129.75,156.68,34.49,275.35,34.36Z"/><path class="cls-7" d="M1188.11,269.12c0-16.32.07-32.65-.07-49,0-3.16.68-4.39,4.08-4.22,9.3.48,18.64-.49,27.94.83,21.79,3.09,35.56,15,40.71,36.19a94.55,94.55,0,0,1-.16,46c-5.92,23.43-21.72,35.42-47.77,36.75a62.5,62.5,0,0,1-13.46-.45c-6.72-1.12-9.62-3.9-10.4-10.73a135.26,135.26,0,0,1-.84-13.94C1188,296.78,1188.11,283,1188.11,269.12Z"/><path class="cls-7" d="M1023.77,244.84q0-12.72,0-25.44c0-1.57-.5-3.52,2.23-3.4,8,.35,16-.84,23.86.95,8.15,1.86,14.19,6.49,17.46,14.2,4.17,9.82,4.18,19.78-.49,29.43-3.85,7.93-10.6,12.15-19.19,13.43-6.94,1-14,.38-20.92.62-3.08.11-3-1.73-3-3.85C1023.79,262.13,1023.77,253.48,1023.77,244.84Z"/><path class="cls-7" d="M1536.53,245.12c0-8.31.12-16.63-.06-24.94-.07-3.1.56-4.51,4-4.26,4.3.32,8.65.14,13,.07,23.7-.41,32,17.86,29,35.81-2.24,13.63-11,21.34-24.73,22.44-5.78.47-11.64.11-17.44.4-3.19.16-3.94-1.13-3.88-4.07C1536.63,262.09,1536.53,253.61,1536.53,245.12Z"/><path class="cls-7" d="M1372,212.87c0-11.33.09-22.66-.06-34,0-3,.48-4.44,4-4.3,7.31.3,14.66-.05,22,.18,20.33.62,33.15,12.75,34.94,33a54.54,54.54,0,0,1-.79,15.91c-3.37,16.4-15.49,26.83-32.25,27.31-8,.23-16-.05-24,.17-3,.09-4-.69-3.92-3.84C1372.12,235.86,1372,224.36,1372,212.87Z"/><path class="cls-7" d="M924.17,275.09c.1,13.87-2.37,26.36-8.37,38-9.83,19-25.74,28.09-47,27.93-20.9-.15-36.59-9.41-45.66-28.26-11.31-23.49-11.56-47.65-1-71.42,9.34-21,26.11-31.13,49.24-30.43,22.6.69,37.7,12.2,46.5,32.52A76.7,76.7,0,0,1,924.17,275.09Z"/><path class="cls-1" d="M226.56,369.88c-2-4.47-69.26-204.73-70.51-209.94l19.83-1.87c6.46-.61,9.5-3.52,9.18-8.79s-3.66-7.68-10.35-7.25c-19.45,1.23-38.89,2.62-58.41,2.08-1,0-2-.1-4-.2,31.92-46.15,74.35-75.22,129-84.56,61.76-10.55,116.37,6,165,47.68-10.75.4-19.06,3.3-25.39,10.36-11.14,12.41-12,26.51-6.31,41.49,3.66,9.71,9.41,18.32,14.77,27.12,11.43,18.75,18.47,38.73,16.69,61.05-1.15,14.37-5.57,28-9.73,41.7-8,26.21-15.82,52.46-23.76,78.8-2.1-.75-1.87-2.74-2.34-4.13q-33.51-99.46-67-198.93c-1.41-4.18-.28-5,3.55-5.16,5.48-.24,11-.79,16.42-1.36s8.35-3.85,8-8.87c-.35-4.71-3.48-7.44-9-7.11-21.62,1.3-43.23,2.9-64.91,2-11.81-.5-23.61-1.37-35.42-2-6.84-.34-10.37,2.25-10.7,7.55-.32,5.07,2.78,7.86,9.41,8.52,2,.2,4,1,5.94.68,10.33-1.53,14,4.09,17,13.09,7.48,22.54,16.1,44.71,24.27,67,.85,2.34,1.37,4.48.47,7.16q-20.31,60.5-40.36,121.08C227.49,368,227,368.86,226.56,369.88Z"/><path class="cls-1" d="M278.51,268.74c8.95,24.51,17.7,48.49,26.45,72.47C316,371.48,327,401.77,338.18,432c1,2.71.45,3.3-2,4.08-37.25,12.06-74.76,13.16-112.6,3-2.75-.74-3.66-1.57-2.6-4.63q28.11-81.24,56-162.54C277.34,271,277.85,270.14,278.51,268.74Z"/><path class="cls-1" d="M97.49,172.9c18.24,50,36.34,99.62,54.45,149.25q17.92,49.17,35.82,98.35c.47,1.3,2.05,2.92.86,4.06-1.5,1.45-3.1-.36-4.42-1.1-58.36-32.58-93-81.66-102.28-148.06-4.72-33.87.11-66.67,13-98.3C95.49,175.77,95.66,174.21,97.49,172.9Z"/><path class="cls-1" d="M447.88,162.06c14.7,27.95,22.16,57.86,21.53,89.3-1.4,71-32.35,126-91.65,165.1-1.11.73-2.26,1.41-3.41,2.07-.23.13-.57,0-1.27.07,6.16-17.86,12.25-35.57,18.39-53.26q22.86-65.94,45.76-131.87a176.72,176.72,0,0,0,9.65-66.28C446.78,165.4,445.26,163.33,447.88,162.06Z"/><path class="cls-8" d="M447.88,162.06c-1.54,1.48-.3,3.49-1,5.13a14.56,14.56,0,0,1-.63-2.37c-.18-1.63-.22-3.28-.33-5.13C447.49,159.94,447.63,161,447.88,162.06Z"/></svg>